<svg width="32" height="32" viewBox="0 0 32 32" fill="none" xmlns="http://www.w3.org/2000/svg">
<path d="M16 2.66721C8.66721 2.66721 2.66721 8.66721 2.66721 16C2.66721 23.3328 8.66721 29.3328 16 29.3328C23.3328 29.3328 29.3328 23.3328 29.3328 16C29.3328 8.66721 23.3328 2.66721 16 2.66721ZM20.7328 21.0672L15.2928 17.72C15.0969 17.603 14.9349 17.437 14.8227 17.2384C14.7105 17.0398 14.6519 16.8153 14.6528 16.5872V10.3328C14.6598 10.0673 14.7694 9.81486 14.9585 9.62842C15.1476 9.44197 15.4016 9.33602 15.6672 9.33281C15.9318 9.3349 16.1849 9.44093 16.372 9.62801C16.5591 9.8151 16.6651 10.0682 16.6672 10.3328V16.2656L21.7872 19.3456C22.2672 19.64 22.4272 20.2656 22.1328 20.7472C21.9881 20.9735 21.7602 21.1339 21.4983 21.1938C21.2364 21.2536 20.9615 21.2082 20.7328 21.0672V21.0672Z" fill="url(#paint0_linear_23_3)"/>
<defs>
<linearGradient id="paint0_linear_23_3" x1="16" y1="2.66721" x2="16" y2="29.3328" gradientUnits="userSpaceOnUse">
<stop stop-color="#FFBF00"/>
<stop offset="1" stop-color="#F2A50C"/>
</linearGradient>
</defs>
</svg>
